<?xml version="1.0" encoding="UTF-8"?>
<svg version="1.1" xmlns="http://www.w3.org/2000/svg" width="1080" height="1080">
<path d="M0 0 C356.4 0 712.8 0 1080 0 C1080 356.4 1080 712.8 1080 1080 C723.6 1080 367.2 1080 0 1080 C0 723.6 0 367.2 0 0 Z " fill="#002045" transform="translate(0,0)"/>
<path d="M0 0 C356.4 0 712.8 0 1080 0 C1080 356.4 1080 712.8 1080 1080 C723.6 1080 367.2 1080 0 1080 C0 723.6 0 367.2 0 0 Z M373 176 C372.18593406 176.26964317 371.37186811 176.53928635 370.53313351 176.81710052 C347.34445273 185.1206139 328.12188659 203.67830693 317.625 225.75 C316.72801701 227.82396343 315.85054438 229.90656334 315 232 C314.52433594 233.15048828 314.52433594 233.15048828 314.0390625 234.32421875 C308.80578175 248.34008452 309.73226376 263.76805426 309.8046875 278.4609375 C309.80842495 280.70537184 309.81126846 282.94980782 309.81326294 285.19424438 C309.82084176 291.05656565 309.84043987 296.91878533 309.8626709 302.78106689 C309.88325425 308.78111396 309.89229118 314.78117769 309.90234375 320.78125 C309.92369199 332.52087758 309.9577572 344.26043029 310 356 C309.24353243 355.99631283 308.48706486 355.99262566 307.70767403 355.98882675 C289.22512599 355.90014526 270.74262092 355.83413066 252.25990486 355.79275131 C243.32146648 355.77220411 234.38317089 355.74423526 225.44482422 355.69824219 C217.64606047 355.65813238 209.84740023 355.63251035 202.04853618 355.62364602 C197.92640341 355.61847173 193.80456653 355.60647811 189.68252945 355.57707977 C160.64023397 355.05218495 160.64023397 355.05218495 133.1875 363.625 C132.14879761 364.13595215 132.14879761 364.13595215 131.08911133 364.65722656 C109.1156673 375.90074818 91.38613557 396.47329892 83.640625 419.89453125 C81.15255461 428.35937944 79.84547913 436.38402208 79.87695217 445.21711636 C79.87579843 446.0207084 79.87464468 446.82430045 79.87345598 447.65224377 C79.87081132 450.34243787 79.87529271 453.03257204 79.87974548 455.72276306 C79.87930794 457.66688043 79.87843081 459.61099775 79.87715149 461.55511475 C79.87490716 466.90722618 79.87892386 472.25931762 79.88392727 477.61142652 C79.88828995 483.46793591 79.88683292 489.32444436 79.88610935 495.18095493 C79.88557739 506.55254603 79.89019763 517.92412924 79.89661068 529.29571832 C79.90380589 542.44751254 79.90460517 555.59930201 79.90539551 568.75109863 C79.91064753 603.47990034 79.92460862 638.20870029 79.9375 672.9375 C79.958125 750.508125 79.97875 828.07875 80 908 C383.6 908 687.2 908 1000 908 C1000.061875 830.594375 1000.12375 753.18875 1000.1875 673.4375 C1000.22846802 636.75807251 1000.22846802 636.75807251 1000.27026367 599.33764648 C1000.28029615 577.44342867 1000.28029615 577.44342867 1000.28633118 555.54920959 C1000.28912931 545.78734675 1000.30013615 536.02553538 1000.31672668 526.26368713 C1000.33583655 515.00280415 1000.34450456 503.74197056 1000.34033485 492.48107124 C1000.3385293 486.72191981 1000.34137193 480.96287876 1000.35764539 475.20374763 C1000.37228772 469.99009381 1000.37294196 464.77662801 1000.36270332 459.56296539 C1000.36143689 457.68388309 1000.36519194 455.8047888 1000.37464774 453.92572987 C1000.51062549 425.20254555 991.83147422 402.20200996 971.625 381.3125 C956.4213965 366.5040654 935.12058525 355.86170805 913.58389282 355.87974548 C911.67833618 355.87768349 911.67833618 355.87768349 909.73428345 355.87557983 C908.33929419 355.87911828 906.94430518 355.88275308 905.54931641 355.88647461 C904.0706177 355.88675688 902.59191884 355.88659796 901.11322021 355.8860321 C897.10955863 355.8857457 893.10592712 355.89161709 889.10227251 355.89860606 C884.9142424 355.9048657 880.72621156 355.90544547 876.53817749 355.90663147 C868.61227719 355.90973709 860.68639072 355.91794011 852.7604965 355.92798096 C843.73513799 355.93916599 834.70977882 355.94465857 825.6844151 355.94967639 C807.12293557 355.96012336 788.5614689 355.9777079 770 356 C770.00444122 354.76575287 770.00888245 353.53150574 770.01345825 352.25985718 C770.05415227 340.57961033 770.08405507 328.89937803 770.10362434 317.21907616 C770.11402356 311.21535645 770.12811164 305.21169437 770.15087891 299.20800781 C770.17274572 293.40488754 770.18459761 287.60182241 770.18975449 281.79866409 C770.19342554 279.59410358 770.20059357 277.38954579 770.21146011 275.185009 C770.36026335 243.720982 763.95056584 220.75953167 741.875 197.4375 C719.50788253 175.60070471 692.9009725 171.36516925 662.81398928 171.47710133 C659.16497522 171.48625546 655.51603389 171.47213152 651.86703491 171.46118164 C644.74182346 171.44350147 637.61678163 171.44718897 630.49156385 171.4588322 C624.69546826 171.46790726 618.89941984 171.46907304 613.10331917 171.46473694 C611.86062791 171.46381754 611.86062791 171.46381754 610.59283178 171.46287957 C608.90925255 171.46160053 607.22567333 171.46030367 605.54209412 171.4589892 C589.79782916 171.44761437 574.05365775 171.46064867 558.30940814 171.48219067 C544.83098118 171.50006215 531.35269206 171.49695111 517.87426758 171.47851562 C502.18046859 171.45705971 486.48675133 171.44870924 470.79293972 171.46096468 C469.11624818 171.46223873 467.43955663 171.46349622 465.76286507 171.46473694 C464.93813406 171.46535404 464.11340306 171.46597114 463.2636802 171.46660694 C457.48111475 171.47004547 451.69860159 171.46426408 445.91604424 171.45481873 C438.85969372 171.44354484 431.80352095 171.44675124 424.74719053 171.4679417 C421.15419309 171.47837975 417.56149088 171.48269963 413.96849632 171.46934509 C393.1568194 171.37570294 393.1568194 171.37570294 373 176 Z " fill="#FEFEFE" transform="translate(0,0)"/>
<path d="M0 0 C1.15357955 -0.00696761 2.30715911 -0.01393521 3.49569562 -0.02111396 C6.6754776 -0.03530947 9.85428026 -0.02735143 13.03401516 -0.00972402 C16.50164341 0.00393395 19.96916659 -0.01157898 23.43678516 -0.02327484 C29.50685554 -0.03975524 35.57669871 -0.03774524 41.64677143 -0.02344799 C50.67320363 -0.00224579 59.69945527 -0.00973053 68.72589472 -0.02282321 C84.84837058 -0.04526452 100.97074153 -0.03929333 117.09321748 -0.02138711 C131.20169264 -0.00581492 145.31013103 0.00003174 159.41861439 -0.00372791 C160.35474991 -0.00396471 161.29088543 -0.00420151 162.2553887 -0.00444549 C166.05553262 -0.00542043 169.85567652 -0.00644124 173.65582041 -0.00753059 C209.29719702 -0.01761157 244.93850905 0.00064557 280.57987047 0.03218976 C312.24158077 0.0600523 343.90321428 0.06501272 375.56493282 0.04999638 C383.67328067 0.0461739 391.78162853 0.0423791 399.8899765 0.03882599 C400.88822644 0.03838817 401.88647638 0.03795036 402.91497631 0.03749928 C429.37630421 0.02625874 455.83762646 0.03360887 482.29895252 0.04670674 C485.14631625 0.0480953 487.99367998 0.04947601 490.84104372 0.05084516 C492.72988448 0.05175454 494.61872525 0.05267721 496.507566 0.05361326 C510.60748677 0.06040792 524.70738536 0.05774988 538.80730534 0.05066586 C554.83949646 0.04269897 570.8716103 0.04926703 586.90378446 0.0748409 C595.87537347 0.08876195 604.84680685 0.09174984 613.81839837 0.07890619 C619.8122405 0.07144132 625.80595165 0.07854483 631.79976827 0.0974643 C635.21401996 0.10784107 638.6279586 0.11199413 642.04220647 0.09848576 C645.72452089 0.08730362 649.40596506 0.10071587 653.08822632 0.12025452 C654.14204086 0.1111757 655.19585541 0.10209688 656.28160372 0.09274295 C668.00110376 0.21406795 677.27097439 4.14972847 685.66478634 12.25141239 C692.76576024 19.90133939 695.14024473 28.49028838 695.10144711 38.7002039 C695.10230153 39.52033207 695.10315596 40.34046024 695.10403627 41.18544078 C695.10568502 43.93694564 695.10017957 46.6883897 695.09471798 49.43988895 C695.09443595 51.41089724 695.09459415 53.38190563 695.09516048 55.35291386 C695.09544785 60.70788728 695.08956092 66.06283839 695.08258653 71.41780663 C695.07634288 77.01254826 695.07574839 82.60729037 695.07456112 88.20203495 C695.07145079 98.7983641 695.06324141 109.39468295 695.05321163 119.99100757 C695.04204124 132.05374731 695.0365377 144.11648754 695.03151619 156.17923117 C695.02105857 180.99496395 695.00346488 205.8106876 694.98119259 230.62641239 C693.00119259 230.62641239 691.02119259 230.62641239 688.98119259 230.62641239 C688.97532635 229.56898335 688.96946011 228.5115543 688.9634161 227.42208195 C688.90607902 217.43247593 688.83326022 207.44308531 688.74547768 197.45369911 C688.70084542 192.31865937 688.6615736 187.18369767 688.63475704 182.04853153 C688.60865274 177.08817815 688.5682001 172.12812621 688.51800632 167.16796017 C688.50138572 165.28028915 688.48984162 163.39256606 688.48357868 161.50483227 C688.47388508 158.85046121 688.44576394 156.19685304 688.41356564 153.54267216 C688.41500072 152.77086613 688.41643581 151.9990601 688.41791439 151.203866 C688.26345591 142.13715296 685.43714942 134.06536175 678.93431759 127.58734989 C674.87097826 123.837624 671.10986034 120.73048121 665.98119259 118.62641239 C666.70306759 117.92516239 667.42494259 117.22391239 668.16869259 116.50141239 C673.26009426 111.41001072 677.11100512 107.45133937 677.35619259 100.00141239 C677.28440426 94.01426543 676.28604573 89.91061876 671.98119259 85.62641239 C663.58633339 79.92455753 653.8065066 79.68422467 643.98119259 80.62641239 C639.27536658 81.78865667 636.08871829 83.60408097 632.54369259 86.87641239 C628.96085305 93.18220997 628.59660443 98.58808927 629.98119259 105.62641239 C630.99053091 109.38669333 630.99053091 109.38669333 633.85619259 111.75141239 C634.55744259 112.04016239 635.25869259 112.32891239 635.98119259 112.62641239 C637.33232464 113.60222998 638.67066202 114.59670981 639.98119259 115.62641239 C635.0048563 119.68605516 630.43741975 121.04422678 623.98119259 120.62641239 C619.75843488 119.41584104 616.91792818 117.88831367 614.28197384 114.33734989 C611.40231601 108.33590085 612.27743847 100.99714529 614.35619259 94.81391239 C614.88493124 93.41313085 615.42559572 92.01675968 615.98119259 90.62641239 C618.55180482 83.32046183 619.23926939 75.63680539 616.79369259 68.18891239 C614.11866405 62.93109767 610.59680434 60.40052012 605.12963009 58.22797489 C596.75434574 55.88289527 588.43811229 55.89795254 580.60619259 59.81391239 C578.24873803 62.44338093 577.74920638 65.23435149 576.98119259 68.62641239 C578.23931759 68.72953739 579.49744259 68.83266239 580.79369259 68.93891239 C583.32791907 69.14663587 584.64415319 69.3732481 586.69213009 70.91156864 C589.44755803 74.57712278 589.24830712 79.49681433 588.69603634 83.89984989 C587.90032538 87.71123852 586.74730828 91.24626288 585.35619259 94.87641239 C582.80233008 102.31649143 582.56908805 111.54699883 585.89525509 118.79438114 C591.74466239 128.66262583 600.54388339 133.04091318 611.23119259 136.50141239 C622.23617473 139.15723901 633.81147077 138.8352943 643.98119259 133.62641239 C646.12812268 132.27867794 648.20521541 130.91278823 650.22728634 129.38422489 C651.98119259 128.62641239 651.98119259 128.62641239 654.07884884 129.30609989 C657.09346036 131.39837647 657.91904619 133.30150314 658.59909725 136.8568964 C658.97675452 140.58262917 659.10139187 144.19461354 659.09471798 147.93866825 C659.09486401 148.63219395 659.09501003 149.32571964 659.09516048 150.04026127 C659.09446999 152.30729262 659.08671851 154.57423934 659.07884884 156.84125614 C659.07698159 158.42308857 659.07555913 160.00492158 659.07456112 161.5867548 C659.07076014 165.7311754 659.06095073 169.87556044 659.04985714 174.01996708 C659.03959079 178.25661583 659.03505235 182.49327038 659.03002071 186.72992802 C659.0193261 195.02877238 659.00227902 203.32758795 658.98119259 211.62641239 C657.86295592 210.67637848 656.74591919 209.72493207 655.62938595 208.77289677 C655.00720684 208.24321293 654.38502773 207.71352909 653.74399471 207.16779423 C650.81416235 204.60596932 648.17033852 201.78278536 645.48509884 198.97016239 C642.19518182 195.89067688 638.62387054 193.27156388 634.98119259 190.62641239 C634.35027706 191.26256474 633.71936153 191.89871708 633.06932735 192.55414677 C630.73619191 194.90428413 628.40085154 197.25218397 626.06395626 199.59858036 C625.05133749 200.61624027 624.03961636 201.63479419 623.02880001 202.65424442 C621.57906319 204.11605646 620.12617051 205.57466481 618.67259884 207.03266239 C617.7980505 207.91244755 616.92350216 208.7922327 616.02245235 209.69867802 C613.98119259 211.62641239 613.98119259 211.62641239 612.98119259 211.62641239 C612.97976757 210.89835896 612.97834255 210.17030552 612.97687435 209.42018986 C612.959023 202.54902695 612.91734647 195.67837401 612.84910202 188.80753899 C612.81485343 185.27531652 612.78972555 181.74352554 612.78563595 178.21112919 C612.78052727 174.14721401 612.73540082 170.08458978 612.68822384 166.02094364 C612.69215649 164.75619709 612.69608913 163.49145054 612.70014095 162.18837833 C612.84738022 155.20639283 612.84738022 155.20639283 609.62450314 149.35175419 C604.96478808 146.31026474 600.68477803 146.41127794 595.29369259 146.37641239 C594.51574337 146.35578739 593.73779415 146.33516239 592.93627071 146.31391239 C586.38039045 146.27017007 580.48706316 147.18648578 575.60619259 151.93891239 C572.46098297 157.14060523 571.53999142 161.55989628 571.98119259 167.62641239 C572.77839939 170.61593791 573.18743895 172.1063669 575.79369259 173.81391239 C576.51556759 174.08203739 577.23744259 174.35016239 577.98119259 174.62641239 C580.45619259 175.61641239 580.45619259 175.61641239 582.98119259 176.62641239 C582.98119259 194.44641239 582.98119259 212.26641239 582.98119259 230.62641239 C567.80119259 230.62641239 552.62119259 230.62641239 536.98119259 230.62641239 C536.9770837 227.25567509 536.97297482 223.88493778 536.96874142 220.41205692 C536.95151867 209.25605939 536.90722501 198.10027791 536.84910202 186.94442272 C536.81453028 180.18278405 536.78910683 173.42134759 536.78563595 166.65961552 C536.78225808 160.13013862 536.75283545 153.60107547 536.70776081 147.07175159 C536.69480432 144.58481528 536.69047152 142.09781811 536.6950388 139.61085224 C536.69995754 136.11825276 536.6737924 132.6271307 536.64061642 129.13471317 C536.64924206 128.11403248 536.6578677 127.09335178 536.66675472 126.04174137 C536.52740279 117.24948833 533.72602372 110.38820663 527.77416134 103.88031864 C523.69261865 100.11418293 519.08590197 97.33185391 514.29369259 94.56391239 C513.41173214 94.0458704 512.52977169 93.52782841 511.62108517 92.99408817 C496.76097002 84.33874198 482.8057185 77.18590591 465.04369259 81.62641239 C463.52775509 82.12141239 463.52775509 82.12141239 461.98119259 82.62641239 C461.81103634 81.61320927 461.64088009 80.60000614 461.46556759 79.55609989 C461.22151145 78.20440438 460.97667827 76.85284901 460.73119259 75.50141239 C460.62162228 74.83625614 460.51205196 74.17109989 460.39916134 73.48578739 C459.30506059 67.61219391 456.994795 63.48512231 452.54369259 59.37641239 C446.36355312 55.15582934 440.30006482 54.78620991 432.98119259 55.62641239 C429.30188531 57.71856751 428.31069919 58.63789259 426.98119259 62.62641239 C426.57515366 67.23339251 426.4375905 71.32176737 428.23119259 75.62641239 C431.15414123 78.96692512 433.20189905 79.51892363 437.60619259 80.12641239 C440.98119259 80.62641239 440.98119259 80.62641239 442.98119259 82.62641239 C443.66248971 87.17367459 443.85933818 91.29293205 441.29369259 95.18891239 C438.63806725 96.83970652 437.10197391 97.34900961 433.98119259 97.62641239 C433.34310665 97.68957645 432.70502071 97.75274052 432.04759884 97.81781864 C420.32205974 98.46575396 409.4230408 91.56451842 399.23509884 86.51703739 C389.7615243 81.88776065 380.54837935 78.11390855 369.99291134 81.61859989 C359.653376 86.36593518 350.28653022 93.6724254 345.71947384 104.31781864 C343.95403302 109.83832405 344.79625206 114.5235685 346.92259884 119.76313114 C349.01191769 123.4406407 352.21899132 125.74531176 355.98119259 127.62641239 C355.98119259 161.61641239 355.98119259 195.60641239 355.98119259 230.62641239 C340.80119259 230.62641239 325.62119259 230.62641239 309.98119259 230.62641239 C309.96137325 227.27549442 309.94155392 223.92457645 309.921134 220.47211552 C309.85418199 209.39199308 309.77654298 198.311964 309.6936655 187.23194981 C309.6436227 180.51515302 309.59717912 173.79836793 309.55931759 167.08149052 C309.52240264 160.59751826 309.47602544 154.11367599 309.42312908 147.6298151 C309.4046182 145.15796537 309.38949809 142.6860878 309.37784863 140.21419621 C309.36092986 136.74795102 309.33188051 133.28200137 309.30004025 129.81586552 C309.29788006 128.79734501 309.29571987 127.7788245 309.29349422 126.72943974 C309.24222362 122.35083262 309.05229052 118.3932023 307.87996578 114.16071415 C306.72251807 109.60921047 308.02296006 107.16612344 310.29369259 103.31391239 C310.95762676 102.11013194 311.62043049 100.90572714 312.28197384 99.70063114 C313.12308712 98.17889286 313.12308712 98.17889286 313.98119259 96.62641239 C315.2845114 92.71645596 315.16347223 88.97699419 315.18431759 84.89984989 C315.19001766 84.037598 315.19571774 83.17534611 315.20159054 82.28696537 C315.21103825 80.45953439 315.21757361 78.63208639 315.22142696 76.80463505 C315.23108367 74.03267699 315.26208844 71.26147616 315.29369259 68.48969364 C315.30022802 66.7097501 315.30547637 64.92980128 315.30931759 63.14984989 C315.32783779 61.92121723 315.32783779 61.92121723 315.34673214 60.66776371 C315.32120348 53.94370321 314.2682173 47.48519328 309.98119259 42.12641239 C305.53895423 38.79473362 300.59341417 39.4070245 295.29369259 39.37641239 C294.42035275 39.35578739 293.5470129 39.33516239 292.64720821 39.31391239 C286.7383336 39.27860918 282.31209758 39.99984977 276.98119259 42.62641239 C275.44087672 44.95202564 274.7995507 46.91560114 273.98119259 49.62641239 C274.90351681 49.75596317 274.90351681 49.75596317 275.84447384 49.88813114 C276.65271603 50.02863895 277.46095821 50.16914677 278.29369259 50.31391239 C279.0942004 50.44152958 279.89470821 50.56914677 280.71947384 50.70063114 C283.94931713 52.02269135 284.52084907 53.46751329 285.98119259 56.62641239 C286.23358796 59.56414979 286.33206495 62.27837007 286.27416134 65.20844364 C286.2699165 66.02262257 286.26567165 66.83680149 286.26129818 67.6756525 C286.24457012 70.26374907 286.20692971 72.85105311 286.16869259 75.43891239 C286.15363812 77.19866673 286.13995104 78.95843334 286.12767696 80.71820927 C286.09468595 85.02124676 286.04294499 89.32369542 285.98119259 93.62641239 C285.03582638 93.0771912 284.09046017 92.52797001 283.1164465 91.96210575 C281.85530727 91.23416446 280.59407166 90.5063901 279.33275509 89.77875614 C278.71215206 89.41761723 278.09154903 89.05647831 277.45213985 88.68439579 C265.53355659 81.82514547 252.99329262 77.95794223 239.31713009 81.60297489 C233.77409926 83.68001863 228.67648759 86.00432767 223.98119259 89.62641239 C223.43591915 89.30027958 222.89064571 88.97414677 222.32884884 88.63813114 C212.43558044 82.90510894 203.28722782 80.50387234 191.82884884 80.38813114 C190.66306553 80.37602352 190.66306553 80.37602352 189.47373104 80.3636713 C187.83065127 80.3498912 186.1875436 80.33914211 184.54442501 80.33124638 C182.89329565 80.31980147 181.24220105 80.29947038 179.59130001 80.26972294 C165.17028539 80.01062813 152.12904789 81.05145571 139.98119259 89.62641239 C139.32119259 89.62641239 138.66119259 89.62641239 137.98119259 89.62641239 C137.60994259 90.39984989 137.60994259 90.39984989 137.23119259 91.18891239 C135.92072624 93.74432178 134.47040132 96.19498237 132.98119259 98.64984989 C130.08057156 104.38310864 129.69081452 109.45999815 129.70995235 115.7460413 C129.70472561 116.64447758 129.69949886 117.54291386 129.69411373 118.46857548 C129.68390017 120.41317474 129.67809795 122.35780114 129.67623234 124.30242634 C129.67255523 127.38958436 129.65578933 130.47642497 129.63547421 133.56351566 C129.58020694 142.33881543 129.549473 151.11416232 129.52489376 159.88959599 C129.50893259 165.26531352 129.47862057 170.64080712 129.44012928 176.01640797 C129.42855021 178.05512313 129.42254956 180.09387849 129.42244816 182.13262653 C129.42065842 208.55215016 129.42065842 208.55215016 124.23682308 214.69272709 C118.70323677 219.80255449 113.50714457 219.86078836 106.29369259 219.93891239 C105.42035275 219.9679163 104.5470129 219.9969202 103.64720821 220.02680302 C97.67377803 220.08479748 92.87443183 219.23791399 87.98119259 215.62641239 C83.19272698 209.79128764 82.85864016 203.49687882 82.83934689 196.23749638 C82.83587246 195.51167362 82.83239803 194.78585087 82.82881832 194.03803349 C82.82149125 192.46880635 82.8161297 190.89956905 82.81252766 189.33032894 C82.80533512 186.84618018 82.78965028 184.36222584 82.77118587 181.87813663 C82.71882971 174.81777355 82.67070268 167.75752236 82.65526485 160.69696903 C82.64519154 156.37270762 82.61589282 152.04894407 82.57394505 147.72487926 C82.5616296 146.07869129 82.55651479 144.43243306 82.55874348 142.78620052 C82.56109302 140.48556881 82.53896229 138.18637179 82.51122189 135.88593388 C82.50535564 134.5775304 82.4994894 133.26912693 82.4934454 131.92107487 C81.89621859 128.07988413 81.03006766 126.9493121 77.98119259 124.62641239 C70.08375393 120.75447372 61.53639282 118.52242974 52.98119259 116.62641239 C53.49053631 113.62028575 53.86113581 111.80187999 55.60619259 109.25141239 C57.98119259 107.62641239 57.98119259 107.62641239 61.16869259 107.62641239 C64.98023247 108.62616056 68.22143261 110.04152383 71.77806759 111.69281864 C74.89670733 113.01436988 77.59785522 113.56134821 80.98119259 113.62641239 C87.47693479 110.65721978 89.40061389 104.9414237 91.98119259 98.62641239 C92.87323755 95.60783371 93.46249443 92.73860132 93.98119259 89.62641239 C93.42173946 89.71922489 92.86228634 89.81203739 92.28588009 89.90766239 C86.08405373 90.46602618 82.12996057 88.92958606 76.91869259 85.68891239 C72.35805418 82.87977017 68.4151886 80.73623851 63.04369259 80.07563114 C58.35851622 81.3267862 55.48842986 84.88793459 52.85619259 88.72016239 C52.23744259 89.84422489 51.61869259 90.96828739 50.98119259 92.12641239 C50.47918331 93.03411381 50.47918331 93.03411381 49.96703243 93.96015263 C46.6576141 100.03425178 43.72373187 106.27664787 40.98119259 112.62641239 C40.59705196 113.47074833 40.21291134 114.31508427 39.81713009 115.18500614 C38.91715549 117.81343664 38.82358301 119.8682447 38.98119259 122.62641239 C39.65666134 122.84555302 40.33213009 123.06469364 41.02806759 123.29047489 C42.36611446 123.76613895 42.36611446 123.76613895 43.73119259 124.25141239 C44.61291134 124.55305302 45.49463009 124.85469364 46.40306759 125.16547489 C49.84538952 127.11612399 51.05498103 129.18400845 52.98119259 132.62641239 C53.47998714 135.93138981 53.47998714 135.93138981 53.4794836 139.55878544 C53.4850024 140.22474232 53.4905212 140.8906992 53.49620724 141.57683659 C53.50548639 143.01395766 53.50566627 144.45116098 53.49761295 145.88828945 C53.48490412 148.17313886 53.49634593 150.45679374 53.51364803 152.74160099 C53.54030567 156.77666163 53.54594612 160.81142704 53.54454708 164.8465662 C53.54231706 171.28576528 53.55680753 177.72459583 53.60013294 184.16365337 C53.60986275 186.39645295 53.60130804 188.62865742 53.59143734 190.86144352 C53.60648226 201.38067964 54.23835337 211.50420106 61.18431759 219.91156864 C66.40702065 224.89584396 73.26848428 227.30747679 79.98119259 229.62641239 C79.98119259 229.95641239 79.98119259 230.28641239 79.98119259 230.62641239 C57.21119259 230.62641239 34.44119259 230.62641239 10.98119259 230.62641239 C12.30119259 229.63641239 13.62119259 228.64641239 14.98119259 227.62641239 C19.59722131 223.573314 22.48203399 219.44322319 23.28368282 213.31342411 C23.41925699 210.76503365 23.43974975 208.24065775 23.41869259 205.68891239 C23.43867306 204.83361942 23.45865353 203.97832645 23.47923946 203.09711552 C23.47380303 195.9699548 21.50980481 190.96779282 17.23119259 185.31391239 C15.05977217 183.68534708 13.36741859 182.93398596 10.84056759 182.02094364 C10.11837032 181.75773319 9.39617306 181.49452274 8.65209103 181.22333622 C7.8249963 180.92785892 7.8249963 180.92785892 6.98119259 180.62641239 C6.97572414 179.66254612 6.97572414 179.66254612 6.97014523 178.6792078 C6.92835852 171.99555035 6.8590397 165.31258206 6.77367306 158.62934208 C6.7454346 156.1346205 6.72423447 153.63980898 6.7101965 151.14496708 C6.6888076 147.56018773 6.64217551 143.97649321 6.59056759 140.39203739 C6.58933895 139.27524601 6.58811031 138.15845463 6.58684444 137.00782108 C6.56712582 135.96704411 6.54740719 134.92626713 6.52709103 133.85395145 C6.51820858 132.93905949 6.50932613 132.02416752 6.50017452 131.08155155 C5.82004871 127.86409176 4.49045475 126.68787041 1.98119259 124.62641239 C-5.91624607 120.75447372 -14.46360718 118.52242974 -23.01880741 116.62641239 C-22.50946369 113.62028575 -22.13886419 111.80187999 -20.39380741 109.25141239 C-18.01880741 107.62641239 -18.01880741 107.62641239 -14.83130741 107.62641239 C-11.74993373 108.43464155 -9.46233119 109.31654217 -6.64380741 110.68891239 C-2.05505403 112.8188457 1.9706024 113.69312007 6.98119259 112.62641239 C12.74434249 108.95895336 14.88809309 101.88155975 16.98119259 95.62641239 C17.35888539 93.63431318 17.70576928 91.63520634 17.98119259 89.62641239 C17.42173946 89.71922489 16.86228634 89.81203739 16.28588009 89.90766239 C10.08405373 90.46602618 6.12996057 88.92958606 0.91869259 85.68891239 C-3.64194582 82.87977017 -7.5848114 80.73623851 -12.95630741 80.07563114 C-17.64148378 81.3267862 -20.51157014 84.88793459 -23.14380741 88.72016239 C-23.76255741 89.84422489 -24.38130741 90.96828739 -25.01880741 92.12641239 C-25.35348026 92.73154667 -25.68815311 93.33668095 -26.03296757 93.96015263 C-29.3423859 100.03425178 -32.27626813 106.27664787 -35.01880741 112.62641239 C-35.40294804 113.47074833 -35.78708866 114.31508427 -36.18286991 115.18500614 C-37.08284451 117.81343664 -37.17641699 119.8682447 -37.01880741 122.62641239 C-36.34333866 122.84555302 -35.66786991 123.06469364 -34.97193241 123.29047489 C-33.63388554 123.76613895 -33.63388554 123.76613895 -32.26880741 124.25141239 C-31.38708866 124.55305302 -30.50536991 124.85469364 -29.59693241 125.16547489 C-26.13243093 127.1286924 -24.9373721 129.14368044 -23.01880741 132.62641239 C-22.6458389 135.35819078 -22.48271971 137.67987495 -22.5205164 140.40082645 C-22.5149976 141.15617176 -22.5094788 141.91151707 -22.50379276 142.68975163 C-22.49450426 144.32168072 -22.4943415 145.95368232 -22.50238705 147.58561802 C-22.51507128 150.1767905 -22.50367635 152.76690598 -22.48635197 155.35804081 C-22.45967932 159.93106189 -22.4540547 164.50382243 -22.45545292 169.07691288 C-22.45768237 176.381056 -22.44331002 183.68487476 -22.39986706 190.98889256 C-22.39010344 193.52695448 -22.39870911 196.06449714 -22.40856266 198.60254765 C-22.39445293 209.61872286 -22.18149743 219.46372237 -14.01880741 227.62641239 C-12.69880741 228.61641239 -11.37880741 229.60641239 -10.01880741 230.62641239 C-20.24880741 230.62641239 -30.47880741 230.62641239 -41.01880741 230.62641239 C-41.11147981 204.73965932 -41.18282509 178.85294632 -41.2260561 152.96606064 C-41.24666427 140.94580462 -41.27475161 128.92565369 -41.32056522 116.90546513 C-41.36048629 106.42630164 -41.38625291 95.94721428 -41.39516139 85.46797687 C-41.40036717 79.92143122 -41.41256651 74.37510332 -41.44172764 68.82862759 C-41.46897988 63.60263288 -41.47723257 58.3769446 -41.47123814 53.15088558 C-41.47233399 51.23815843 -41.48022913 49.32542048 -41.49562931 47.41275501 C-41.61031702 32.42736247 -39.99747996 21.36677182 -29.49927616 9.97797489 C-21.32899504 2.14563727 -10.96606743 -0.12506408 0 0 Z " fill="#FDFEFE" transform="translate(213.01880741119385,585.3735876083374)"/>
<path d="M0 0 C91.08 0 182.16 0 276 0 C276 30.36 276 60.72 276 92 C184.92 92 93.84 92 0 92 C0 61.64 0 31.28 0 0 Z " fill="#FDFDFE" transform="translate(402,264)"/>
<path d="M0 0 C7.26 0 14.52 0 22 0 C22 12.54 22 25.08 22 38 C138.16 38 254.32 38 374 38 C374 25.46 374 12.92 374 0 C381.26 0 388.52 0 396 0 C396 12.54 396 25.08 396 38 C400.8154541 37.97905273 405.6309082 37.95810547 410.59228516 37.93652344 C426.48593954 37.87030398 442.37959929 37.82588105 458.27335548 37.79275131 C467.91163794 37.77212677 477.54978971 37.74400821 487.18798828 37.69824219 C495.58872514 37.65837114 503.98936735 37.6325664 512.3901962 37.62364602 C516.83834066 37.61843172 521.28621434 37.60617852 525.734272 37.57707977 C529.92198974 37.5499064 534.10932543 37.54155884 538.29712296 37.54756927 C539.83300351 37.54646989 541.36889699 37.53852723 542.90470123 37.5231781 C545.00501886 37.50321881 547.103902 37.50808075 549.20425415 37.51898193 C550.96580054 37.51345118 550.96580054 37.51345118 552.76293373 37.50780869 C556.73396694 38.11159863 558.88231224 39.50905531 562 42 C564.45917586 45.6887638 564.81591937 48.7184429 564 53 C562.25549494 56.0220794 560.16697836 58.41651082 557 60 C554.88415769 60.09431282 552.76525096 60.12190144 550.64730835 60.12025452 C549.98814757 60.12110894 549.32898679 60.12196337 548.64985144 60.12284368 C546.43109116 60.12449676 544.21240572 60.11897994 541.99365234 60.11352539 C540.40717063 60.11324346 538.82068879 60.11340138 537.23420715 60.1139679 C532.91833617 60.11425562 528.6024928 60.10836285 524.28662825 60.10139394 C519.77959806 60.09515632 515.27256729 60.09455628 510.76553345 60.09336853 C502.22680421 60.09025642 493.68808773 60.08204465 485.14936411 60.07201904 C475.43003644 60.06085417 465.71070817 60.05534651 455.99137568 60.05032361 C435.99424175 60.03986194 415.99712531 60.02151795 396 60 C396 72.54 396 85.08 396 98 C388.74 98 381.48 98 374 98 C374 85.46 374 72.92 374 60 C257.84 60 141.68 60 22 60 C22 72.54 22 85.08 22 98 C14.74 98 7.48 98 0 98 C0 85.46 0 72.92 0 60 C-7.67757568 60.03927612 -7.67757568 60.03927612 -15.51025391 60.0793457 C-32.40174003 60.16211155 -49.29323402 60.21764522 -66.18486977 60.25906086 C-76.42852741 60.28484418 -86.67199298 60.31999723 -96.91552734 60.37719727 C-105.84364175 60.42702822 -114.77161705 60.45929009 -123.69986665 60.47044247 C-128.42752385 60.47696175 -133.1547831 60.49228654 -137.88231277 60.52865028 C-142.33272615 60.56260491 -146.78257791 60.57305408 -151.23310852 60.56553841 C-152.86575244 60.5669132 -154.49841526 60.57684918 -156.13094711 60.59602737 C-158.36285702 60.62095919 -160.59265527 60.61490735 -162.82461548 60.60127258 C-164.69677703 60.60818603 -164.69677703 60.60818603 -166.60676003 60.61523914 C-171.13131081 59.79487843 -172.76902511 58.22673288 -176 55 C-177.62027459 50.93888257 -177.45383294 47.15979528 -175.875 43.125 C-172.87803857 39.72844371 -170.28959941 38.14627018 -165.74542522 37.63085651 C-164.50377007 37.63362189 -163.26211493 37.63638727 -161.98283386 37.63923645 C-161.28844139 37.63667318 -160.59404892 37.6341099 -159.87861425 37.63146895 C-157.55840487 37.62653862 -155.23885031 37.64301089 -152.91870117 37.65942383 C-151.25296036 37.66027027 -149.58721843 37.65979463 -147.92147827 37.65809631 C-143.40322526 37.65723559 -138.88521118 37.67487392 -134.36701369 37.69581819 C-129.64380209 37.71457202 -124.92058501 37.71633441 -120.19734192 37.71989441 C-111.25492386 37.72921867 -102.31261584 37.75383763 -93.37024623 37.78394288 C-83.18896103 37.817475 -73.00767057 37.83396991 -62.82634389 37.84902918 C-41.88415421 37.88038685 -20.94211536 37.93540372 0 38 C0 25.46 0 12.92 0 0 Z " fill="#FAFCFC" transform="translate(344,405)"/>
<path d="M0 0 C0.73806885 0.41878418 1.4761377 0.83756836 2.23657227 1.26904297 C2.93967529 1.68428223 3.64277832 2.09952148 4.3671875 2.52734375 C4.9947998 2.894646 5.62241211 3.26194824 6.26904297 3.64038086 C9.42316952 6.05721684 11.81760526 8.18183204 12.48671532 12.27550602 C12.61814318 15.1004151 12.61934108 17.90002693 12.57910156 20.7277832 C12.57968567 21.8014061 12.58026978 22.87502899 12.58087158 23.98118591 C12.5780876 27.52554796 12.54697926 31.06906633 12.515625 34.61328125 C12.50816377 37.07235759 12.50247028 39.53143988 12.49847412 41.99052429 C12.48320871 48.45973148 12.44391839 54.9285789 12.3996582 61.39764404 C12.35872548 68.00007256 12.34046733 74.60255927 12.3203125 81.20507812 C12.2774255 94.15773551 12.20706755 107.11003154 12.125 120.0625 C-2.725 120.0625 -17.575 120.0625 -32.875 120.0625 C-32.875 86.4025 -32.875 52.7425 -32.875 18.0625 C-42.775 18.0625 -52.675 18.0625 -62.875 18.0625 C-62.875 45.4525 -62.875 72.8425 -62.875 101.0625 C-67.69230759 96.93337921 -72.03091843 92.95231599 -76.37109375 88.40625 C-79.66101077 85.32676449 -83.23232205 82.70765149 -86.875 80.0625 C-87.34397705 80.51165771 -87.8129541 80.96081543 -88.29614258 81.42358398 C-90.4218507 83.45409152 -92.55455589 85.477096 -94.6875 87.5 C-95.42548828 88.20705078 -96.16347656 88.91410156 -96.92382812 89.64257812 C-97.63603516 90.31611328 -98.34824219 90.98964844 -99.08203125 91.68359375 C-100.06393433 92.61836548 -100.06393433 92.61836548 -101.06567383 93.57202148 C-102.875 95.0625 -102.875 95.0625 -105.875 96.0625 C-107.08382096 98.06266466 -107.08382096 98.06266466 -107.875 100.0625 C-108.205 100.0625 -108.535 100.0625 -108.875 100.0625 C-108.875 71.6825 -108.875 43.3025 -108.875 14.0625 C-111.845 13.0725 -114.815 12.0825 -117.875 11.0625 C-120.2398411 10.00533586 -122.57792538 8.88479597 -124.875 7.6875 C-125.98875 7.12289062 -127.1025 6.55828125 -128.25 5.9765625 C-130.875 4.0625 -130.875 4.0625 -131.86328125 1.4765625 C-131.875 -0.9375 -131.875 -0.9375 -130.0625 -3.1875 C-126.1259833 -6.33671336 -123.70198791 -6.10695589 -118.82421875 -5.578125 C-115.5095166 -4.85811023 -112.90452355 -3.64552133 -109.875 -2.125 C-97.98370727 3.62661595 -86.0063317 5.40037569 -72.875 5.5 C-71.46081787 5.51522705 -71.46081787 5.51522705 -70.01806641 5.53076172 C-61.37881052 5.42256148 -53.74598335 3.4995909 -46.25 -0.875 C-45.33863281 -1.39320313 -44.42726563 -1.91140625 -43.48828125 -2.4453125 C-42.19470703 -3.18394531 -42.19470703 -3.18394531 -40.875 -3.9375 C-25.22802934 -12.27206728 -14.65412421 -8.40167722 0 0 Z " fill="#FCFEFD" transform="translate(707.875,695.9375)"/>
<path d="M0 0 C5.87354869 5.72294488 6.82021974 12.72654837 7.08906746 20.6125946 C7.12261176 23.65561354 7.12370671 26.69704585 7.11352539 29.74023438 C7.11367142 30.89232391 7.11381744 32.04441345 7.1139679 33.23141479 C7.11327425 37.01887938 7.10550755 40.80629406 7.09765625 44.59375 C7.09579012 47.227905 7.09436714 49.86206035 7.09336853 52.49621582 C7.09026947 58.70791858 7.08207542 64.91960358 7.07201904 71.13129854 C7.05971274 78.90263311 7.05426405 86.67397061 7.04882812 94.4453125 C7.03910909 108.2968888 7.01907346 122.14842641 7 136 C-17.42 136 -41.84 136 -67 136 C-64.76418528 134.88209264 -62.51606627 133.78567674 -60.23046875 132.7734375 C-51.75777749 128.87969748 -45.61365986 124.64525595 -42.125 115.75 C-40.90490259 111.68300862 -39.8764263 108.19076495 -39.86869812 103.94174194 C-39.86468994 103.1429361 -39.86068176 102.34413025 -39.85655212 101.52111816 C-39.85708084 100.65353882 -39.85760956 99.78595947 -39.8581543 98.89208984 C-39.85467987 97.97122589 -39.85120544 97.05036194 -39.84762573 96.10159302 C-39.84027735 94.10237607 -39.83492708 92.10315102 -39.83133507 90.1039238 C-39.82415668 86.93352439 -39.80847838 83.76327859 -39.78999329 80.59292603 C-39.73759798 71.57873681 -39.68958358 62.5646311 -39.67407227 53.55029297 C-39.66395879 48.03417933 -39.63454692 42.51845173 -39.59275246 37.002491 C-39.58048358 34.90630648 -39.57531364 32.81006734 -39.57755089 30.71384811 C-39.57991885 27.77024297 -39.55762331 24.82773372 -39.5300293 21.88427734 C-39.53663071 21.02884338 -39.54323212 20.17340942 -39.55003357 19.29205322 C-39.45380167 12.99585958 -38.03663122 7.55208551 -35 2 C-26.59038994 -5.33604281 -9.63157554 -5.44487716 0 0 Z " fill="#FDFDFD" transform="translate(411,680)"/>
<path d="M0 0 C11.48675889 6.53601779 11.48675889 6.53601779 13.75 11.0625 C13.84208771 12.53234187 13.87193188 14.00631162 13.87025452 15.47903442 C13.87162918 16.4073407 13.87300385 17.33564697 13.87442017 18.29208374 C13.86902725 19.82416977 13.86902725 19.82416977 13.86352539 21.38720703 C13.86367142 22.46039185 13.86381744 23.53357666 13.8639679 24.63928223 C13.86326917 28.19964595 13.85547861 31.75995787 13.84765625 35.3203125 C13.84579193 37.78368094 13.84436809 40.24704976 13.84336853 42.7104187 C13.83954446 49.20417295 13.82971511 55.69790495 13.81866455 62.19165039 C13.80844806 68.81396178 13.8038704 75.43627676 13.79882812 82.05859375 C13.78809276 95.0599072 13.77049684 108.06119827 13.75 121.0625 C-1.1 121.0625 -15.95 121.0625 -31.25 121.0625 C-31.27505615 117.46400146 -31.3001123 113.86550293 -31.32592773 110.15795898 C-31.40940972 98.26761056 -31.49804669 86.37730437 -31.58933926 74.48701382 C-31.64456312 67.27806108 -31.69802697 60.06910339 -31.74731445 52.86010742 C-31.79028941 46.57506669 -31.83660031 40.29006079 -31.88687855 34.00507408 C-31.91337266 30.67876665 -31.93772471 27.35246614 -31.95907402 24.02612114 C-31.98321918 20.30829962 -32.01325995 16.59056892 -32.04467773 12.87280273 C-32.0504332 11.77588104 -32.05618866 10.67895935 -32.06211853 9.54879761 C-32.11266571 4.28526079 -32.33510374 -0.75075718 -33.25 -5.9375 C-20.85330065 -11.15716289 -10.91628788 -6.11634034 0 0 Z " fill="#FDFEFE" transform="translate(479.25,694.9375)"/>
<path d="M0 0 C0.33 0 0.66 0 1 0 C1.33 27.72 1.66 55.44 2 84 C2.99 84.33 3.98 84.66 5 85 C4.67 87.31 4.34 89.62 4 92 C4.67546875 92.21914063 5.3509375 92.43828125 6.046875 92.6640625 C7.38492188 93.13972656 7.38492188 93.13972656 8.75 93.625 C9.63171875 93.92664063 10.5134375 94.22828125 11.421875 94.5390625 C14.88637648 96.50228001 16.08143531 98.51726804 18 102 C18.37296851 104.73177839 18.53608771 107.05346256 18.49829102 109.77441406 C18.50380981 110.52975937 18.50932861 111.28510468 18.51501465 112.06333923 C18.52430315 113.69526833 18.52446591 115.32726993 18.51642036 116.95920563 C18.50373613 119.5503781 18.51513106 122.14049359 18.53245544 124.73162842 C18.55912809 129.3046495 18.56475272 133.87741004 18.56335449 138.45050049 C18.56112505 145.75464361 18.57549739 153.05846237 18.61894035 160.36248016 C18.62870397 162.90054209 18.6200983 165.43808475 18.61024475 167.97613525 C18.62435448 178.99231047 18.83730998 188.83730998 27 197 C28.32 197.99 29.64 198.98 31 200 C20.77 200 10.54 200 0 200 C0 134 0 68 0 0 Z " fill="#F5F7F8" transform="translate(172,616)"/>
<path d="M0 0 C5.7462096 3.90742253 10.6034973 8.41104258 15.5 13.3125 C16.13566895 13.94752441 16.77133789 14.58254883 17.42626953 15.23681641 C22 19.86536685 22 19.86536685 22 21 C8.14 21 -5.72 21 -20 21 C-13.25 13.125 -13.25 13.125 -10.3515625 10.25390625 C-9.73925781 9.64482422 -9.12695312 9.03574219 -8.49609375 8.40820312 C-7.87863281 7.79912109 -7.26117187 7.19003906 -6.625 6.5625 C-5.98433594 5.92634766 -5.34367188 5.29019531 -4.68359375 4.63476562 C-3.12469121 3.08749668 -1.56348584 1.54263508 0 0 Z " fill="#F2F6F8" transform="translate(621,795)"/>
<path d="M0 0 C5.7462096 3.90742253 10.6034973 8.41104258 15.5 13.3125 C16.13566895 13.94752441 16.77133789 14.58254883 17.42626953 15.23681641 C22 19.86536685 22 19.86536685 22 21 C8.14 21 -5.72 21 -20 21 C-13.25 13.125 -13.25 13.125 -10.3515625 10.25390625 C-9.73925781 9.64482422 -9.12695312 9.03574219 -8.49609375 8.40820312 C-7.87863281 7.79912109 -7.26117187 7.19003906 -6.625 6.5625 C-5.98433594 5.92634766 -5.34367188 5.29019531 -4.68359375 4.63476562 C-3.12469121 3.08749668 -1.56348584 1.54263508 0 0 Z " fill="#F1F5F7" transform="translate(848,795)"/>
<path d="M0 0 C4.75 1.875 4.75 1.875 7 3 C7.33 2.34 7.66 1.68 8 1 C10.92004922 6.48969254 11.74076947 10.90076262 10 17 C9.34 17.33 8.68 17.66 8 18 C7.67 18.99 7.34 19.98 7 21 C4.69 20.01 2.38 19.02 0 18 C0 17.34 0 16.68 0 16 C0.66 16 1.32 16 2 16 C2 15.01 2 14.02 2 13 C1.01 13 0.02 13 -1 13 C-0.96519531 13.67546875 -0.93039063 14.3509375 -0.89453125 15.046875 C-0.86746094 15.93890625 -0.84039062 16.8309375 -0.8125 17.75 C-0.77769531 18.63171875 -0.74289063 19.5134375 -0.70703125 20.421875 C-1.05076316 23.44671583 -2.00227459 24.75583602 -4 27 C-5.98 26.67 -7.96 26.34 -10 26 C-11.98145443 21.04636392 -12.4242319 17.26047553 -12 12 C-10.8125 9.5 -10.8125 9.5 -9 8 C-6.375 7.75 -6.375 7.75 -4 8 C-3.67 8 -3.34 8 -3 8 C-2.690625 6.865625 -2.38125 5.73125 -2.0625 4.5625 C-1 1 -1 1 0 0 Z " fill="#052347" transform="translate(226,773)"/>
<path d="M0 0 C0.33 0 0.66 0 1 0 C1 35.31 1 70.62 1 107 C0.01 107.495 0.01 107.495 -1 108 C-0.67 106.68 -0.34 105.36 0 104 C-0.66 104 -1.32 104 -2 104 C-1.89263186 90.73534017 -1.78002587 77.47073628 -1.66066074 64.20617867 C-1.60540584 58.04746444 -1.55198174 51.8887455 -1.50268555 45.72998047 C-1.45507987 39.79071685 -1.40273847 33.85151241 -1.34705925 27.91231918 C-1.32661846 25.64204245 -1.30790829 23.37174948 -1.29092598 21.10144424 C-1.26692011 17.93101355 -1.23686035 14.76069546 -1.20532227 11.59033203 C-1.1995668 10.64374725 -1.19381134 9.69716248 -1.18788147 8.72189331 C-1.17809265 7.86090027 -1.16830383 6.99990723 -1.15821838 6.11282349 C-1.15176583 5.362484 -1.14531328 4.61214451 -1.1386652 3.83906746 C-1 2 -1 2 0 0 Z " fill="#0A2038" transform="translate(522,708)"/>
<path d="M0 0 C0.33 0 0.66 0 1 0 C1 12.21 1 24.42 1 37 C-53.12 37 -107.24 37 -163 37 C-163 36.67 -163 36.34 -163 36 C-109.54 35.67 -56.08 35.34 -1 35 C-1 23.78 -1 12.56 -1 1 C-0.67 0.67 -0.34 0.34 0 0 Z " fill="#081E39" transform="translate(343,406)"/>
<path d="M0 0 C0.66 0 1.32 0 2 0 C2.02312659 8.45767334 2.0409167 16.91533356 2.05181217 25.37303066 C2.05704031 29.29988658 2.06413669 33.22672094 2.07543945 37.15356445 C2.0862708 40.94014257 2.09227736 44.7266999 2.09487724 48.51329231 C2.09673105 49.96104319 2.10035081 51.40879288 2.10573006 52.85653496 C2.11294367 54.87757135 2.11340808 56.89862848 2.11352539 58.91967773 C2.115746 60.07217514 2.11796661 61.22467255 2.12025452 62.41209412 C2 65 2 65 1 66 C0.76924918 67.34747084 0.58846937 68.70377565 0.4375 70.0625 C0.293125 71.361875 0.14875 72.66125 0 74 C-0.33 74 -0.66 74 -1 74 C-1.02312484 64.49925675 -1.0409158 54.99852312 -1.05181217 45.49775791 C-1.05704069 41.08662996 -1.06413777 36.6755212 -1.07543945 32.2644043 C-1.08626944 28.01098885 -1.09227707 23.75759191 -1.09487724 19.50416374 C-1.09673129 17.87778367 -1.10035152 16.25140466 -1.10573006 14.62503242 C-1.11294198 12.35489807 -1.11399088 10.08484115 -1.11352539 7.81469727 C-1.115746 6.52008072 -1.11796661 5.22546417 -1.12025452 3.89161682 C-1 1 -1 1 0 0 Z " fill="#061E39" transform="translate(646,718)"/>
<path d="M0 0 C2.4375 0.375 2.4375 0.375 4.4375 2.375 C5.83043561 6.58952313 5.92054775 10.98731629 5.4375 15.375 C3.9375 17.9375 3.9375 17.9375 2.4375 19.375 C0.4575 19.045 -1.5225 18.715 -3.5625 18.375 C-5.54395443 13.42136392 -5.9867319 9.63547553 -5.5625 4.375 C-4.06772272 1.22810047 -3.46330955 0.50682579 0 0 Z " fill="#F6FCFB" transform="translate(219.5625,780.625)"/>
<path d="M0 0 C5.94 2.475 5.94 2.475 12 5 C12 32.72 12 60.44 12 89 C11.01 88.67 10.02 88.34 9 88 C9.24300591 86.73525597 9.24300591 86.73525597 9.49092102 85.44496155 C10.01906287 81.87100067 10.13409656 78.49254798 10.14526367 74.88061523 C10.14862228 74.19526703 10.1519809 73.50991882 10.15544128 72.80380249 C10.16488215 70.55538078 10.16689055 68.307034 10.16796875 66.05859375 C10.17118482 64.48730947 10.17454915 62.91602548 10.17805481 61.34474182 C10.18402795 58.05900376 10.18589645 54.77329194 10.18530273 51.48754883 C10.18520092 47.28214166 10.19888124 43.07690258 10.21607494 38.8715353 C10.22720114 35.62957488 10.22922179 32.38765513 10.22869301 29.14567757 C10.2298711 27.59516887 10.23428331 26.04465905 10.24202538 24.49416924 C10.25184306 22.32598976 10.24894097 20.15817582 10.24291992 17.98999023 C10.24505745 16.14182961 10.24505745 16.14182961 10.24723816 14.2563324 C10.00339494 11.04471419 9.46834188 8.85112549 8 6 C6.09318531 4.56739174 6.09318531 4.56739174 3.875 3.6875 C3.15054688 3.36136719 2.42609375 3.03523437 1.6796875 2.69921875 C1.12539063 2.46847656 0.57109375 2.23773437 0 2 C0 1.34 0 0.68 0 0 Z " fill="#0C1F38" transform="translate(587,705)"/>
<path d="M0 0 C4.875 2.75 4.875 2.75 6 5 C6.1109916 7.32106629 6.15659239 9.64533772 6.17358398 11.96899414 C6.180271 12.68634735 6.18695801 13.40370056 6.19384766 14.14279175 C6.20791345 15.70386611 6.21980262 17.26496123 6.22979546 18.82606697 C6.24621161 21.30293832 6.26945428 23.77965826 6.29469299 26.25645447 C6.36541907 33.30004297 6.4253333 40.34369631 6.47680664 47.38745117 C6.50876645 51.69518036 6.55009391 56.00274029 6.59700203 60.31033134 C6.6129327 61.94681153 6.62529507 63.58333074 6.63390923 65.2198658 C6.6773541 73.36222237 6.74823496 81.10277452 9 89 C6 87 6 87 5.32533264 84.35360718 C4.96867442 80.67708841 4.82550126 77.03269423 4.79467773 73.34228516 C4.78477814 72.60013763 4.77487854 71.85799011 4.76467896 71.09335327 C4.73328083 68.6586213 4.70839303 66.22386986 4.68359375 63.7890625 C4.66300545 62.0936942 4.6420085 60.39833082 4.62062073 58.70297241 C4.56559369 54.25445554 4.5160995 49.80589384 4.46777344 45.3572998 C4.41741645 40.81237834 4.3618047 36.26752146 4.30664062 31.72265625 C4.19929617 22.81515943 4.09779916 13.90760638 4 5 C3.01 4.67 2.02 4.34 1 4 C0.3125 1.9375 0.3125 1.9375 0 0 Z " fill="#0D2641" transform="translate(290,709)"/>
<path d="M0 0 C0.66 0.33 1.32 0.66 2 1 C1.83826325 1.57960857 1.67652651 2.15921715 1.50988865 2.75638962 C0.68909189 6.36805686 0.82033173 10.02878158 0.79467773 13.71582031 C0.78477814 14.59422577 0.77487854 15.47263123 0.76467896 16.37765503 C0.73312039 19.27778438 0.7083288 22.17793009 0.68359375 25.078125 C0.66301935 27.09023461 0.64202275 29.10233994 0.62062073 31.11444092 C0.56545024 36.40800512 0.51601879 41.70160801 0.46777344 46.99523926 C0.41752176 52.39790282 0.36185483 57.80051028 0.30664062 63.203125 C0.19912048 73.80203539 0.09766184 84.40099451 0 95 C-0.33 95 -0.66 95 -1 95 C-1.17695326 83.20430609 -1.34290996 71.40851387 -1.49477577 59.61246872 C-1.5656376 54.13526958 -1.64030607 48.65817716 -1.72363281 43.18115234 C-1.80388761 37.89688385 -1.87419704 32.61256854 -1.93757248 27.32807159 C-1.96352329 25.31058109 -1.99307543 23.29313363 -2.02626419 21.27574921 C-2.07208987 18.45306733 -2.10518182 15.63050467 -2.13525391 12.80761719 C-2.1517952 11.97108109 -2.16833649 11.13454498 -2.18537903 10.2726593 C-2.236818 3.26996342 -2.236818 3.26996342 0 0 Z " fill="#081F3D" transform="translate(172,611)"/>
<path d="M0 0 C0.33 0 0.66 0 1 0 C1 30.69 1 61.38 1 93 C1.66 93 2.32 93 3 93 C2.67 93.99 2.34 94.98 2 96 C1.34 96 0.68 96 0 96 C0 64.32 0 32.64 0 0 Z " fill="#0A1D3B" transform="translate(310,259)"/>
<path d="M0 0 C0.66 0.33 1.32 0.66 2 1 C1.67 1.66 1.34 2.32 1 3 C1.66 3 2.32 3 3 3 C2.67 4.32 2.34 5.64 2 7 C2.66 7.33 3.32 7.66 4 8 C4 8.99 4 9.98 4 11 C6.475 11.99 6.475 11.99 9 13 C8.67 13.99 8.34 14.98 8 16 C6.66666667 15.33333333 5.33333333 14.66666667 4 14 C4 13.34 4 12.68 4 12 C3.37351562 11.93941406 2.74703125 11.87882813 2.1015625 11.81640625 C1.28429687 11.73261719 0.46703125 11.64882813 -0.375 11.5625 C-1.59316406 11.44068359 -1.59316406 11.44068359 -2.8359375 11.31640625 C-5 11 -5 11 -7 10 C-6.875 7.25 -6.875 7.25 -6 4 C-2.9375 1.625 -2.9375 1.625 0 0 Z " fill="#052042" transform="translate(494,625)"/>
<path d="M0 0 C1.65 1.32 3.3 2.64 5 4 C4.67 5.32 4.34 6.64 4 8 C2.4840625 7.566875 2.4840625 7.566875 0.9375 7.125 C-3.33624983 6.9893254 -3.8168391 7.19755082 -6.875 9.8125 C-8.68735062 11.52326146 -9.88379296 12.76758593 -11 15 C-11.99 15 -12.98 15 -14 15 C-14.33 16.65 -14.66 18.3 -15 20 C-15.99 20 -16.98 20 -18 20 C-16.6433211 15.91560691 -14.89705352 13.54087268 -11.8125 10.5625 C-11.01585937 9.79164063 -10.21921875 9.02078125 -9.3984375 8.2265625 C-6.33871932 5.38610751 -3.21278862 2.66593099 0 0 Z " fill="#0B2442" transform="translate(621,775)"/>
<path d="M0 0 C0.33 0 0.66 0 1 0 C1.00808685 0.80464691 1.01617371 1.60929382 1.02450562 2.43832397 C1.10276851 10.0583085 1.19015203 17.6781102 1.28752708 25.29787254 C1.33726174 29.21433413 1.38359175 33.13077169 1.421875 37.04736328 C1.45901881 40.83411305 1.50545323 44.62064978 1.55806351 48.40721512 C1.57645424 49.84469452 1.59161733 51.28221931 1.60334396 52.71976852 C1.67042873 60.66647062 2.01193217 68.26476791 4 76 C3.01 76.495 3.01 76.495 2 77 C-0.5756945 69.1570548 -0.25384091 61.28264073 -0.1953125 53.125 C-0.19157672 51.58943873 -0.18873242 50.05387506 -0.18673706 48.51831055 C-0.17914503 44.50044025 -0.15953525 40.48271734 -0.1373291 36.46490479 C-0.11677459 32.35552971 -0.10771491 28.24613055 -0.09765625 24.13671875 C-0.07628463 16.09107863 -0.042203 8.04555771 0 0 Z " fill="#0D2142" transform="translate(266,719)"/>
<path d="M0 0 C4.55555556 0.55555556 4.55555556 0.55555556 6 2 C6.375 5.3125 6.375 5.3125 6 9 C3.5 11.4375 3.5 11.4375 1 13 C-1.5224581 10.37243948 -1.99258956 9.0859611 -2.3125 5.375 C-2 2 -2 2 0 0 Z " fill="#F2F9FB" transform="translate(863,680)"/>
<path d="M0 0 C1.625 2 1.625 2 3 4 C2.01 5.485 2.01 5.485 1 7 C0.61500109 8.65549531 0.27206865 10.3222433 0 12 C-2.64 11.67 -5.28 11.34 -8 11 C-7.63265306 4.63265306 -7.63265306 4.63265306 -4.5625 1.5625 C-2 0 -2 0 0 0 Z " fill="#082243" transform="translate(798,643)"/>
<path d="M0 0 C5.08624889 -0.04985767 10.17235197 -0.08593386 15.25878906 -0.10986328 C16.98505129 -0.11985099 18.71129691 -0.13344583 20.4375 -0.15087891 C29.54116273 -0.2404404 38.12327097 -0.31487595 47 2 C47 2.33 47 2.66 47 3 C46.21625 3.12375 45.4325 3.2475 44.625 3.375 C41.85942178 3.79117993 41.85942178 3.79117993 40 6 C36.875 5.625 36.875 5.625 34 5 C34 3.68 34 2.36 34 1 C22.78 1 11.56 1 0 1 C0 0.67 0 0.34 0 0 Z " fill="#1C2F49" transform="translate(376,665)"/>
<path d="M0 0 C0.33 0.66 0.66 1.32 1 2 C2.65919896 2.36871088 4.32774271 2.69595322 6 3 C9.91855035 4.21288463 11.92970975 5.40423273 14 9 C14 9.99 14 10.98 14 12 C14.66 12.33 15.32 12.66 16 13 C16 14.32 16 15.64 16 17 C16.66 17 17.32 17 18 17 C17.67 17.99 17.34 18.98 17 20 C16.484375 19.34 15.96875 18.68 15.4375 18 C14.633125 17.01 13.82875 16.02 13 15 C12.50242187 14.360625 12.00484375 13.72125 11.4921875 13.0625 C7.2877477 7.89983903 3.00990479 4.83460362 -3 2 C-2.01 1.34 -1.02 0.68 0 0 Z " fill="#0C2441" transform="translate(888,587)"/>
<path d="M0 0 C1.32 1.32 2.64 2.64 4 4 C2.865625 4.268125 1.73125 4.53625 0.5625 4.8125 C-1.2009375 5.4003125 -1.2009375 5.4003125 -3 6 C-3.33 6.99 -3.66 7.98 -4 9 C-6.5 10.5 -6.5 10.5 -9 12 C-9.33 12.99 -9.66 13.98 -10 15 C-11.175625 15.680625 -11.175625 15.680625 -12.375 16.375 C-15.16972197 17.82584278 -15.16972197 17.82584278 -16.5625 20.625 C-18 23 -18 23 -20.1875 23.8125 C-20.785625 23.874375 -21.38375 23.93625 -22 24 C-20.4608199 20.33247995 -18.24514548 18.01419427 -15.4296875 15.234375 C-14.08583984 13.90019531 -14.08583984 13.90019531 -12.71484375 12.5390625 C-11.77769531 11.61867188 -10.84054687 10.69828125 -9.875 9.75 C-8.92011363 8.80515144 -7.96568141 7.85984367 -7.01171875 6.9140625 C-4.67890913 4.60481662 -2.34155914 2.30036797 0 0 Z " fill="#081D38" transform="translate(848,775)"/>
<path d="M0 0 C0.33 0 0.66 0 1 0 C1.33 4.29 1.66 8.58 2 13 C1.01 13.33 0.02 13.66 -1 14 C-1 14.99 -1 15.98 -1 17 C-5.22222222 20 -5.22222222 20 -8 20 C-7.63246139 16.81466541 -6.80693464 15.79208345 -4.5625 13.375 C-1.11363044 9.50748153 -0.66178099 4.99792808 0 0 Z " fill="#102A48" transform="translate(341,786)"/>
<path d="M0 0 C0.8146875 0.00322266 1.629375 0.00644531 2.46875 0.00976562 C3.66757812 -0.0144043 3.66757812 -0.0144043 4.890625 -0.0390625 C9.90093539 -0.04318282 13.39000663 0.52491731 17.71875 3.32226562 C18.04875 3.98226562 18.37875 4.64226563 18.71875 5.32226562 C14.84375 4.44726562 14.84375 4.44726562 13.71875 3.32226562 C12.08618242 3.16511908 10.44739662 3.07141149 8.80859375 3.00585938 C7.81923828 2.96396484 6.82988281 2.92207031 5.81054688 2.87890625 C4.76962891 2.83958984 3.72871094 2.80027344 2.65625 2.75976562 C1.08907227 2.69499023 1.08907227 2.69499023 -0.50976562 2.62890625 C-3.10011884 2.52245338 -5.69057186 2.42043803 -8.28125 2.32226562 C-5.62977936 -0.32920501 -3.61221112 0.03289265 0 0 Z " fill="#2E4257" transform="translate(805.28125,730.677734375)"/>
<path d="M0 0 C3.68069887 1.53643852 5.98775204 3.78150945 8.75 6.625 C9.54921875 7.44226563 10.3484375 8.25953125 11.171875 9.1015625 C12.07679688 10.04128906 12.07679688 10.04128906 13 11 C12.67 11.99 12.34 12.98 12 14 C9.5625 12.8125 9.5625 12.8125 7 11 C6.1875 8.3125 6.1875 8.3125 6 6 C4.5459375 5.5978125 4.5459375 5.5978125 3.0625 5.1875 C2.051875 4.795625 1.04125 4.40375 0 4 C-0.33 3.01 -0.66 2.02 -1 1 C-0.67 0.67 -0.34 0.34 0 0 Z " fill="#0A2040" transform="translate(858,785)"/>
<path d="M0 0 C4.09125955 2.21886329 7.07157732 4.86015272 10.3125 8.1875 C11.19550781 9.08855469 12.07851563 9.98960937 12.98828125 10.91796875 C13.98408203 11.94857422 13.98408203 11.94857422 15 13 C14.34 13.66 13.68 14.32 13 15 C12.60167969 14.50628906 12.20335937 14.01257813 11.79296875 13.50390625 C10.99826172 12.54291016 10.99826172 12.54291016 10.1875 11.5625 C9.66542969 10.92441406 9.14335938 10.28632813 8.60546875 9.62890625 C6.99165589 7.7451725 6.99165589 7.7451725 4 7 C4 6.01 4 5.02 4 4 C3.34 4 2.68 4 2 4 C1.67 4.66 1.34 5.32 1 6 C-0.0625 4.125 -0.0625 4.125 -1 2 C-0.67 1.34 -0.34 0.68 0 0 Z " fill="#0B2440" transform="translate(963,375)"/>
<path d="M0 0 C9.57 0 19.14 0 29 0 C29 0.99 29 1.98 29 3 C28.34 3 27.68 3 27 3 C27 2.34 27 1.68 27 1 C23.24912023 1.08093815 19.49985902 1.19377687 15.75 1.3125 C14.15478516 1.34633789 14.15478516 1.34633789 12.52734375 1.38085938 C10.99013672 1.4340332 10.99013672 1.4340332 9.421875 1.48828125 C8.47924805 1.51446533 7.53662109 1.54064941 6.56542969 1.56762695 C3.6284586 2.06261894 2.20826197 3.04845984 0 5 C0 3.35 0 1.7 0 0 Z " fill="#0A213D" transform="translate(645,714)"/>
<path d="M0 0 C6.45027515 0.26327654 9.47915791 2.50664023 14 7 C13.67 8.32 13.34 9.64 13 11 C10.23609263 8.59660228 9.95934081 7.83736322 9 4 C6.03 4 3.06 4 0 4 C0 2.68 0 1.36 0 0 Z " fill="#081F3B" transform="translate(656,641)"/>
<path d="M0 0 C0.33 0 0.66 0 1 0 C1 2.64 1 5.28 1 8 C2.65 8.33 4.3 8.66 6 9 C6 9.66 6 10.32 6 11 C2.37673261 12.2077558 1.35853631 11.54311128 -2 10 C-1.54177532 6.53058454 -1.10868317 3.32604951 0 0 Z M6 8 C9 9 9 9 9 9 Z " fill="#142A45" transform="translate(253,698)"/>
<path d="M0 0 C0.66 0.33 1.32 0.66 2 1 C1.34 2.32 0.68 3.64 0 5 C-0.66 5 -1.32 5 -2 5 C-2 5.66 -2 6.32 -2 7 C-2.969375 7.268125 -3.93875 7.53625 -4.9375 7.8125 C-5.948125 8.204375 -6.95875 8.59625 -8 9 C-8.33 9.99 -8.66 10.98 -9 12 C-9.99 11.67 -10.98 11.34 -12 11 C-10.75323147 9.72599623 -9.5024352 8.45593346 -8.25 7.1875 C-7.55390625 6.47980469 -6.8578125 5.77210938 -6.140625 5.04296875 C-4.18571355 3.17724121 -2.19661447 1.56830358 0 0 Z " fill="#112643" transform="translate(574,671)"/>
<path d="M0 0 C0.99 0.33 1.98 0.66 3 1 C3 1.66 3 2.32 3 3 C3.66 3 4.32 3 5 3 C5 2.34 5 1.68 5 1 C6.65 1 8.3 1 10 1 C7.03653214 3.47186455 4.45958311 4.66248361 0.75 5.6875 C-0.14203125 5.93886719 -1.0340625 6.19023438 -1.953125 6.44921875 C-2.62859375 6.63097656 -3.3040625 6.81273437 -4 7 C-4 6.34 -4 5.68 -4 5 C-3.34 5 -2.68 5 -2 5 C-1.34 3.35 -0.68 1.7 0 0 Z " fill="#102847" transform="translate(347,809)"/>
<path d="M0 0 C2.31 0 4.62 0 7 0 C7.02696365 1.79158489 7.04637917 3.58328473 7.0625 5.375 C7.07410156 6.37273438 7.08570313 7.37046875 7.09765625 8.3984375 C7 11 7 11 6 13 C4.02111039 13.72693904 2.02045442 14.39816251 0 15 C0.66 14.319375 1.32 13.63875 2 12.9375 C4.48564529 9.28670848 4.64215333 7.33453498 4 3 C2.13875077 1.01760473 2.13875077 1.01760473 0 0 Z " fill="#1C324A" transform="translate(864,679)"/>
<path d="M0 0 C0.66 0.33 1.32 0.66 2 1 C1.57692877 2.31722179 1.13602514 3.62872664 0.6875 4.9375 C0.44386719 5.66839844 0.20023437 6.39929688 -0.05078125 7.15234375 C-1 9 -1 9 -4 10 C-4 11.32 -4 12.64 -4 14 C-4.99 14.33 -5.98 14.66 -7 15 C-5.45454854 9.52067211 -2.84456788 4.88570819 0 0 Z " fill="#1A2E48" transform="translate(93,400)"/>
<path d="M0 0 C0.66 0 1.32 0 2 0 C2.33 1.32 2.66 2.64 3 4 C-3.6 4 -10.2 4 -17 4 C-17 3.34 -17 2.68 -17 2 C-11.39 2 -5.78 2 0 2 C0 1.34 0 0.68 0 0 Z " fill="#081D3C" transform="translate(362,401)"/>
<path d="M0 0 C0.226875 0.53625 0.45375 1.0725 0.6875 1.625 C2.43382056 4.78500863 4.6402849 7.2676983 7 10 C6.01 10.495 6.01 10.495 5 11 C-1.57142857 5.85714286 -1.57142857 5.85714286 -3 2 C-2.01 1.34 -1.02 0.68 0 0 Z " fill="#0F253E" transform="translate(196,804)"/>
<path d="M0 0 C5.94 2.475 5.94 2.475 12 5 C12 7.97 12 10.94 12 14 C10 11 10 11 9.375 8.5625 C7.30137332 4.69801392 3.93637932 3.63863232 0 2 C0 1.34 0 0.68 0 0 Z " fill="#12263F" transform="translate(587,705)"/>
<path d="M0 0 C1.03253906 0.01353516 1.03253906 0.01353516 2.0859375 0.02734375 C3.76577838 0.05067487 5.44543746 0.08653674 7.125 0.125 C7.125 0.455 7.125 0.785 7.125 1.125 C6.32835937 1.16238281 5.53171875 1.19976563 4.7109375 1.23828125 C-1.14500329 1.60160604 -5.79451693 1.91627385 -10.875 5.125 C-11.865 5.62 -11.865 5.62 -12.875 6.125 C-13.205 4.805 -13.535 3.485 -13.875 2.125 C-9.17038677 0.26367327 -4.9992304 -0.1259496 0 0 Z " fill="#172D45" transform="translate(690.875,664.875)"/>
<path d="M0 0 C0.99 0.33 1.98 0.66 3 1 C1.71034824 2.37562854 0.37310707 3.70766393 -1 5 C-1.66 5 -2.32 5 -3 5 C-3.66 8.3 -4.32 11.6 -5 15 C-5.33 15 -5.66 15 -6 15 C-6.02708567 13.39592672 -6.04643483 11.7917215 -6.0625 10.1875 C-6.07410156 9.29417969 -6.08570313 8.40085937 -6.09765625 7.48046875 C-6 5 -6 5 -5 2 C-3.35 2.33 -1.7 2.66 0 3 C0 2.01 0 1.02 0 0 Z " fill="#112643" transform="translate(645,643)"/>
<path d="M0 0 C0.99 0.33 1.98 0.66 3 1 C-1.18461538 7.64615385 -1.18461538 7.64615385 -5.3125 9.4375 C-6.6428125 9.7159375 -6.6428125 9.7159375 -8 10 C-8 9.34 -8 8.68 -8 8 C-6.35 7.67 -4.7 7.34 -3 7 C-3.0928125 5.824375 -3.0928125 5.824375 -3.1875 4.625 C-3.125625 3.75875 -3.06375 2.8925 -3 2 C-2.01 1.34 -1.02 0.68 0 0 Z " fill="#192F49" transform="translate(300,690)"/>
<path d="M0 0 C1.98 0 3.96 0 6 0 C6.66 1.32 7.32 2.64 8 4 C7.01 5.485 7.01 5.485 6 7 C6 6.34 6 5.68 6 5 C4.35 4.67 2.7 4.34 1 4 C0.67 2.68 0.34 1.36 0 0 Z " fill="#0C274A" transform="translate(223,677)"/>
<path d="M0 0 C0.66 0.99 1.32 1.98 2 3 C1.25 5.875 1.25 5.875 0 9 C-0.37125 9.94875 -0.7425 10.8975 -1.125 11.875 C-1.41375 12.57625 -1.7025 13.2775 -2 14 C-2.66 14 -3.32 14 -4 14 C-3.36843005 8.94744036 -1.86540627 4.70406799 0 0 Z " fill="#1D324C" transform="translate(317,227)"/>
<path d="M0 0 C2.96404505 2.80804268 5.44499019 5.18315774 7 9 C6.01 9.33 5.02 9.66 4 10 C2 8.375 2 8.375 0 6 C-0.25 2.75 -0.25 2.75 0 0 Z " fill="#0E2745" transform="translate(978,389)"/>
<path d="M0 0 C0.99 0 1.98 0 3 0 C3 0.66 3 1.32 3 2 C3.99 2.33 4.98 2.66 6 3 C3.36 4.65 0.72 6.3 -2 8 C-2.33 7.34 -2.66 6.68 -3 6 C-2.34 5.34 -1.68 4.68 -1 4 C-0.3574765 1.93125966 -0.3574765 1.93125966 0 0 Z " fill="#0A2543" transform="translate(658,691)"/>
<path d="M0 0 C0.33 0.66 0.66 1.32 1 2 C0.34 2 -0.32 2 -1 2 C-1.103125 2.61875 -1.20625 3.2375 -1.3125 3.875 C-2 6 -2 6 -5 8 C-7.1875 7.625 -7.1875 7.625 -9 7 C-7.73022941 4.46045883 -6.35227757 3.8315325 -3.9375 2.375 C-3.20402344 1.92898438 -2.47054688 1.48296875 -1.71484375 1.0234375 C-1.14894531 0.68570313 -0.58304687 0.34796875 0 0 Z " fill="#112845" transform="translate(445,669)"/>
<path d="M0 0 C-0.33 0.66 -0.66 1.32 -1 2 C-2.32 2 -3.64 2 -5 2 C-5 2.99 -5 3.98 -5 5 C-5.99 5.33 -6.98 5.66 -8 6 C-8.66 5.67 -9.32 5.34 -10 5 C-10 5.66 -10 6.32 -10 7 C-10.99 6.67 -11.98 6.34 -13 6 C-6.07061503 -0.88838269 -6.07061503 -0.88838269 0 0 Z " fill="#112644" transform="translate(204,665)"/>
<path d="M0 0 C0.33 0.99 0.66 1.98 1 3 C0 5 0 5 -2.4375 6.4375 C-5.2355972 7.89664045 -5.2355972 7.89664045 -7 11 C-7.66 11 -8.32 11 -9 11 C-9.33 11.66 -9.66 12.32 -10 13 C-10 10 -10 10 -7.8125 7.51953125 C-6.884375 6.62621094 -5.95625 5.73289062 -5 4.8125 C-4.071875 3.91144531 -3.14375 3.01039063 -2.1875 2.08203125 C-1.1046875 1.05142578 -1.1046875 1.05142578 0 0 Z " fill="#102542" transform="translate(113,377)"/>
<path d="M0 0 C0.99 0.66 1.98 1.32 3 2 C0.72036239 5.41945641 -0.32597111 5.56623263 -4 7 C-5.77277259 8.52007842 -5.77277259 8.52007842 -7 10 C-7.66 9.67 -8.32 9.34 -9 9 C-6.03 6.03 -3.06 3.06 0 0 Z " fill="#0C223C" transform="translate(342,194)"/>
<path d="M0 0 C8.57142857 -0.28571429 8.57142857 -0.28571429 12 2 C11.21625 2.12375 10.4325 2.2475 9.625 2.375 C6.85942178 2.79117993 6.85942178 2.79117993 5 5 C4.01 5 3.02 5 2 5 C2 4.01 2 3.02 2 2 C1.34 1.34 0.68 0.68 0 0 Z " fill="#0F274B" transform="translate(411,666)"/>
<path d="M0 0 C0.33 1.32 0.66 2.64 1 4 C1.928125 3.773125 2.85625 3.54625 3.8125 3.3125 C7 3 7 3 8.875 4.4375 C9.431875 5.2109375 9.431875 5.2109375 10 6 C9.34 6 8.68 6 8 6 C7.67 6.66 7.34 7.32 7 8 C4.69 7.01 2.38 6.02 0 5 C0 3.35 0 1.7 0 0 Z " fill="#1A2E46" transform="translate(175,703)"/>
<path d="M0 0 C1.32 0.66 2.64 1.32 4 2 C4 3.65 4 5.3 4 7 C2.68 6.67 1.36 6.34 0 6 C-0.66 7.32 -1.32 8.64 -2 10 C-2 8.02 -2 6.04 -2 4 C-1.34 4 -0.68 4 0 4 C0 2.68 0 1.36 0 0 Z " fill="#102D52" transform="translate(419,688)"/>
<path d="M0 0 C1.98 0.66 3.96 1.32 6 2 C6 2.99 6 3.98 6 5 C7.98 4.67 9.96 4.34 12 4 C12 4.66 12 5.32 12 6 C7.07008655 6.28999491 3.90748231 6.19703098 0 3 C0 2.01 0 1.02 0 0 Z " fill="#192E49" transform="translate(642,660)"/>
<path d="M0 0 C0.66 0.66 1.32 1.32 2 2 C2.680625 2.268125 3.36125 2.53625 4.0625 2.8125 C6 4 6 4 6.75 6.625 C6.8325 7.40875 6.915 8.1925 7 9 C2.79373966 7.49776416 1.26099979 4.71449966 -1 1 C-0.67 0.67 -0.34 0.34 0 0 Z " fill="#0A223E" transform="translate(800,704)"/>
<path d="M0 0 C0.66 0.99 1.32 1.98 2 3 C1.67 3.99 1.34 4.98 1 6 C0.01 6.33 -0.98 6.66 -2 7 C-2.99 7.495 -2.99 7.495 -4 8 C-3.67 5.69 -3.34 3.38 -3 1 C-2.01 0.67 -1.02 0.34 0 0 Z " fill="#102B4B" transform="translate(794,646)"/>
<path d="M0 0 C3.96 1.98 3.96 1.98 8 4 C7.67 4.66 7.34 5.32 7 6 C6.34 6 5.68 6 5 6 C5 6.66 5 7.32 5 8 C4.01 7.67 3.02 7.34 2 7 C0.8125 3.4375 0.8125 3.4375 0 0 Z " fill="#132B48" transform="translate(950,366)"/>
<path d="M0 0 C0.66 0.33 1.32 0.66 2 1 C1.34 2.65 0.68 4.3 0 6 C-2.31 6 -4.62 6 -7 6 C-4.74259377 3.66475218 -2.7194239 1.81294927 0 0 Z " fill="#1A314C" transform="translate(125,368)"/>
<path d="M0 0 C0 0.66 0 1.32 0 2 C-0.93972656 2.19916016 -0.93972656 2.19916016 -1.8984375 2.40234375 C-3.12433594 2.66724609 -3.12433594 2.66724609 -4.375 2.9375 C-5.18710937 3.11152344 -5.99921875 3.28554688 -6.8359375 3.46484375 C-9.029463 3.92330693 -9.029463 3.92330693 -11 5 C-10 2 -10 2 -8.3125 0.8125 C-5.45030907 -0.19313465 -3.01172092 -0.13689641 0 0 Z " fill="#E8F3F5" transform="translate(588,690)"/>
<path d="M0 0 C1.98 0 3.96 0 6 0 C6 0.66 6 1.32 6 2 C5.401875 2.2475 4.80375 2.495 4.1875 2.75 C1.71352479 4.16370012 0.56629745 5.65055383 -1 8 C-1 4.88742431 -0.82638376 2.89234315 0 0 Z " fill="#0E2541" transform="translate(267,691)"/>
<path d="M0 0 C0.33 0.99 0.66 1.98 1 3 C0.01 4.485 0.01 4.485 -1 6 C-0.34 6.33 0.32 6.66 1 7 C0.01 8.485 0.01 8.485 -1 10 C-1.99 10 -2.98 10 -4 10 C-3.5205537 5.78087253 -2.83374881 3.20336822 0 0 Z " fill="#162C49" transform="translate(846,671)"/>
<path d="M0 0 C5.19822672 1.36144033 8.09543873 3.46730171 12 7 C11.01 7.33 10.02 7.66 9 8 C6.95880212 6.38405168 4.95927063 4.7143618 3 3 C2.01 2.67 1.02 2.34 0 2 C0 1.34 0 0.68 0 0 Z " fill="#192B46" transform="translate(817,643)"/>
<path d="M0 0 C1 3 1 3 0 6 C1.32 6.66 2.64 7.32 4 8 C-0.75 9.125 -0.75 9.125 -3 8 C-2.25 2.25 -2.25 2.25 0 0 Z " fill="#21334C" transform="translate(490,627)"/>
<path d="M0 0 C0.33 0.99 0.66 1.98 1 3 C-2.375 3.125 -2.375 3.125 -6 3 C-6.66 2.34 -7.32 1.68 -8 1 C-3.375 -1.125 -3.375 -1.125 0 0 Z M-4 3 C-2 4 -2 4 -2 4 Z " fill="#0F2847" transform="translate(371,179)"/>
<path d="M0 0 C0.66 0.66 1.32 1.32 2 2 C-0.31 4.31 -2.62 6.62 -5 9 C-5.33 8.01 -5.66 7.02 -6 6 C-4 4 -2 2 0 0 Z " fill="#0B2039" transform="translate(613,800)"/>
<path d="M0 0 C0.66 0.33 1.32 0.66 2 1 C1.814375 1.53625 1.62875 2.0725 1.4375 2.625 C0.88580676 5.61990614 1.39402556 8.03745829 2 11 C1.01 10.67 0.02 10.34 -1 10 C-1.02689216 8.52093108 -1.04634621 7.04172517 -1.0625 5.5625 C-1.07410156 4.73878906 -1.08570313 3.91507813 -1.09765625 3.06640625 C-1 1 -1 1 0 0 Z " fill="#0F223B" transform="translate(520,693)"/>
<path d="M0 0 C3.40843742 2.88406243 4.86591384 4.3708265 5.8125 8.8125 C5.9053125 10.3903125 5.9053125 10.3903125 6 12 C3.42852716 10.71426358 3.36852166 9.78645458 2.4375 7.125 C2.18871094 6.42632813 1.93992187 5.72765625 1.68359375 5.0078125 C1.11599908 3.34070587 0.55690288 1.67070865 0 0 Z " fill="#0C223B" transform="translate(884,670)"/>
<path d="M0 0 C0.99 0.33 1.98 0.66 3 1 C2.625 2.9375 2.625 2.9375 2 5 C-0.00032373 6.00016187 -1.83125748 6.49396008 -4 7 C-2.68 4.69 -1.36 2.38 0 0 Z " fill="#0E2446" transform="translate(268,670)"/>
<path d="M0 0 C-1.39332574 3.36720387 -2.9789286 4.9859524 -6 7 C-5.625 4.0625 -5.625 4.0625 -5 1 C-3 0 -3 0 0 0 Z " fill="#142A46" transform="translate(606,809)"/>
<path d="M0 0 C0.33 0.99 0.66 1.98 1 3 C-0.21484375 5.26171875 -0.21484375 5.26171875 -1.9375 7.6875 C-2.50339844 8.49574219 -3.06929687 9.30398438 -3.65234375 10.13671875 C-4.09707031 10.75160156 -4.54179687 11.36648438 -5 12 C-5.33 11.01 -5.66 10.02 -6 9 C-5.34 9 -4.68 9 -4 9 C-3.896875 8.443125 -3.79375 7.88625 -3.6875 7.3125 C-2.86866423 4.55823422 -1.54146219 2.41272343 0 0 Z " fill="#15293F" transform="translate(235,801)"/>
<path d="M0 0 C1.32 0.33 2.64 0.66 4 1 C0.535 3.97 0.535 3.97 -3 7 C-2.25 2.25 -2.25 2.25 0 0 Z " fill="#DBE6EE" transform="translate(833,786)"/>
<path d="M0 0 C4.3177458 0.50797009 8.03302114 1.19682779 12 3 C12 3.33 12 3.66 12 4 C9.36 4 6.72 4 4 4 C3.67 3.34 3.34 2.68 3 2 C2.01 1.34 1.02 0.68 0 0 Z " fill="#0C233D" transform="translate(198,704)"/>
<path d="M0 0 C0.66 0 1.32 0 2 0 C0.55873214 3.36295835 -1.20592655 5.62927102 -4 8 C-4.99 8 -5.98 8 -7 8 C-7 7.34 -7 6.68 -7 6 C-6.01 5.67 -5.02 5.34 -4 5 C-2.66172696 3.33729713 -1.32810215 1.67083819 0 0 Z " fill="#0D2338" transform="translate(887,693)"/>
<path d="M0 0 C3.40312738 1.05875074 6.01353231 2.00902154 9 4 C9 4.66 9 5.32 9 6 C5.08788267 4.84414715 2.1254959 3.64465038 -1 1 C-0.67 0.67 -0.34 0.34 0 0 Z " fill="#0E253D" transform="translate(593,690)"/>
<path d="M0 0 C0 0.66 0 1.32 0 2 C-6.93 1.505 -6.93 1.505 -14 1 C-14 0.67 -14 0.34 -14 0 C-4.58997722 -1.33257403 -4.58997722 -1.33257403 0 0 Z " fill="#152844" transform="translate(406,676)"/>
<path d="M0 0 C-0.639375 0.28875 -1.27875 0.5775 -1.9375 0.875 C-4.15206079 1.82823451 -4.15206079 1.82823451 -5 4 C-7.97 3.505 -7.97 3.505 -11 3 C-10 1 -10 1 -7.1875 -0.1875 C-4.14038924 -0.96421451 -2.86250637 -1.10096399 0 0 Z " fill="#1E324A" transform="translate(861,666)"/>
<path d="M0 0 C1.65 0.99 3.3 1.98 5 3 C1.375 6 1.375 6 -2 6 C-1.34 4.02 -0.68 2.04 0 0 Z " fill="#152F4B" transform="translate(520,625)"/>
<path d="M0 0 C-0.99 1.485 -0.99 1.485 -2 3 C-3.9453125 3.29296875 -3.9453125 3.29296875 -6.125 3.1875 C-7.40375 3.125625 -8.6825 3.06375 -10 3 C-3.66666667 -1.22222222 -3.66666667 -1.22222222 0 0 Z " fill="#EEFAFD" transform="translate(358,812)"/>
<path d="M0 0 C1.65 1.65 3.3 3.3 5 5 C3.68 5.33 2.36 5.66 1 6 C0.67 5.34 0.34 4.68 0 4 C-0.99 4 -1.98 4 -3 4 C-2.01 2.68 -1.02 1.36 0 0 Z " fill="#061E3A" transform="translate(621,775)"/>
<path d="M0 0 C3.3 0.99 6.6 1.98 10 3 C9.67 3.66 9.34 4.32 9 5 C7.68428397 4.7452486 6.37239624 4.47065859 5.0625 4.1875 C4.33160156 4.03667969 3.60070312 3.88585937 2.84765625 3.73046875 C2.23792969 3.48941406 1.62820313 3.24835937 1 3 C0.67 2.01 0.34 1.02 0 0 Z " fill="#0D223E" transform="translate(279,705)"/>
<path d="M0 0 C3.3 1.65 6.6 3.3 10 5 C6 6 6 6 3.75 5.0625 C3.1725 4.711875 2.595 4.36125 2 4 C2 3.34 2 2.68 2 2 C1.34 2 0.68 2 0 2 C0 1.34 0 0.68 0 0 Z " fill="#EEFAFB" transform="translate(469,690)"/>
<path d="M0 0 C0.33 0.66 0.66 1.32 1 2 C1.825 2.165 2.65 2.33 3.5 2.5 C4.325 2.665 5.15 2.83 6 3 C6.33 3.66 6.66 4.32 7 5 C4 6 4 6 2.17578125 5.22265625 C0.45052083 4.1484375 -1.27473958 3.07421875 -3 2 C-2.01 1.34 -1.02 0.68 0 0 Z " fill="#182E48" transform="translate(888,587)"/>
<path d="M0 0 C1.98 0.99 1.98 0.99 4 2 C4 2.99 4 3.98 4 5 C4.66 5 5.32 5 6 5 C5.67 5.99 5.34 6.98 5 8 C2.5 5.6875 2.5 5.6875 0 3 C0 2.01 0 1.02 0 0 Z " fill="#0A203A" transform="translate(865,808)"/>
<path d="M0 0 C0.66 0.33 1.32 0.66 2 1 C-0.31 3.31 -2.62 5.62 -5 8 C-5.33 7.01 -5.66 6.02 -6 5 C-4.60210322 2.20420645 -2.7371003 1.40192942 0 0 Z " fill="#122640" transform="translate(837,804)"/>
<path d="M0 0 C0.99 0.33 1.98 0.66 3 1 C2.34 3.97 1.68 6.94 1 10 C-1.56687367 6.1496895 -0.83288724 4.41430237 0 0 Z " fill="#EBF3F6" transform="translate(174,700)"/>
<path d="M0 0 C0.33 1.32 0.66 2.64 1 4 C1.33 3.01 1.66 2.02 2 1 C2.99 1.33 3.98 1.66 5 2 C4.34 3.65 3.68 5.3 3 7 C2.34 7 1.68 7 1 7 C0.67 4.69 0.34 2.38 0 0 Z " fill="#203856" transform="translate(841,683)"/>
<path d="M0 0 C2.475 0.99 2.475 0.99 5 2 C5 3.32 5 4.64 5 6 C5.66 6 6.32 6 7 6 C6.67 6.99 6.34 7.98 6 9 C3.59927045 6.11912454 1.52708963 3.43595166 0 0 Z " fill="#162B45" transform="translate(899,598)"/>
<path d="M0 0 C1.98 0.66 3.96 1.32 6 2 C6 2.99 6 3.98 6 5 C4.125 4.75 4.125 4.75 2 4 C0.75 1.9375 0.75 1.9375 0 0 Z " fill="#09203D" transform="translate(639,810)"/>
<path d="M0 0 C1.98 1.65 3.96 3.3 6 5 C4.68 5.33 3.36 5.66 2 6 C1.34 4.02 0.68 2.04 0 0 Z M6 2 C6.66 2.66 7.32 3.32 8 4 C7.01 4.495 7.01 4.495 6 5 C6 4.01 6 3.02 6 2 Z " fill="#08203A" transform="translate(639,792)"/>
<path d="M0 0 C0.66 1.32 1.32 2.64 2 4 C1.01 4.99 0.02 5.98 -1 7 C-2.32 6.34 -3.64 5.68 -5 5 C-3.35 4.34 -1.7 3.68 0 3 C0 2.01 0 1.02 0 0 Z " fill="#112A4C" transform="translate(214,793)"/>
<path d="M0 0 C4.75 0.75 4.75 0.75 7 3 C3.98968256 3.93423645 3.13349732 4.04449911 0 3 C0 2.01 0 1.02 0 0 Z " fill="#041D3A" transform="translate(836,706)"/>
<path d="M0 0 C1.66666667 3.33333333 3.33333333 6.66666667 5 10 C3.68 9.67 2.36 9.34 1 9 C-1.125 2.25 -1.125 2.25 0 0 Z " fill="#E9F0F5" transform="translate(796,698)"/>
<path d="M0 0 C1.0625 1.8125 1.0625 1.8125 2 4 C1.67 4.99 1.34 5.98 1 7 C-2.0625 8.1875 -2.0625 8.1875 -5 9 C-4.0409375 7.88625 -4.0409375 7.88625 -3.0625 6.75 C-1.21666593 4.2888879 -0.43930826 2.96533074 0 0 Z " fill="#273E55" transform="translate(869,685)"/>
<path d="M0 0 C0.99 0.33 1.98 0.66 3 1 C2.67 1.33 2.34 1.66 2 2 C1.95919217 3.99958364 1.95745644 6.00045254 2 8 C1.34 7.67 0.68 7.34 0 7 C-0.6875 4 -0.6875 4 -1 1 C-0.67 0.67 -0.34 0.34 0 0 Z " fill="#102542" transform="translate(445,688)"/>
<path d="M0 0 C0.99 0 1.98 0 3 0 C3.33 0.99 3.66 1.98 4 3 C1 5 1 5 -2 5 C-1.34 3.35 -0.68 1.7 0 0 Z " fill="#0E2844" transform="translate(347,680)"/>
<path d="M0 0 C2.97 0 5.94 0 9 0 C9 0.33 9 0.66 9 1 C7.906875 1.309375 6.81375 1.61875 5.6875 1.9375 C3.44592006 2.58337897 1.2130649 3.2623117 -1 4 C-0.67 2.68 -0.34 1.36 0 0 Z " fill="#1D304D" transform="translate(378,677)"/>
<path d="M0 0 C1.98 0 3.96 0 6 0 C5.34 1.32 4.68 2.64 4 4 C2.68 3.67 1.36 3.34 0 3 C0 2.01 0 1.02 0 0 Z " fill="#071D3C" transform="translate(740,466)"/>
<path d="M0 0 C1.65 0.99 3.3 1.98 5 3 C4.01 3.33 3.02 3.66 2 4 C1.67 4.66 1.34 5.32 1 6 C-0.0625 4.125 -0.0625 4.125 -1 2 C-0.67 1.34 -0.34 0.68 0 0 Z " fill="#11284C" transform="translate(963,375)"/>
<path d="M0 0 C2.5 2.3125 2.5 2.3125 5 5 C5 5.99 5 6.98 5 8 C4.01 7.67 3.02 7.34 2 7 C0.8125 3.4375 0.8125 3.4375 0 0 Z " fill="#162D4C" transform="translate(747,204)"/>
<path d="M0 0 C0.99 0.33 1.98 0.66 3 1 C2.67 2.65 2.34 4.3 2 6 C0.35 5.01 -1.3 4.02 -3 3 C-2.01 2.01 -1.02 1.02 0 0 Z " fill="#102A47" transform="translate(627,795)"/>
<path d="M0 0 C0.33 0 0.66 0 1 0 C1.125 3.375 1.125 3.375 1 7 C0.34 7.66 -0.32 8.32 -1 9 C-1.80967438 6.08517222 -2.21845993 4.53886783 -1.0625 1.6875 C-0.711875 1.130625 -0.36125 0.57375 0 0 Z " fill="#EAF4F8" transform="translate(224,789)"/>
<path d="M0 0 C1.32 0.66 2.64 1.32 4 2 C4 2.99 4 3.98 4 5 C2.0625 4.6875 2.0625 4.6875 0 4 C-0.33 3.01 -0.66 2.02 -1 1 C-0.67 0.67 -0.34 0.34 0 0 Z " fill="#0F2846" transform="translate(858,785)"/>
<path d="M0 0 C4.875 1.75 4.875 1.75 6 4 C4.125 4.625 4.125 4.625 2 5 C1.34 4.34 0.68 3.68 0 3 C0 2.01 0 1.02 0 0 Z " fill="#0C243F" transform="translate(883,706)"/>
<path d="M0 0 C0 3 0 3 -2 6 C-3.32 5.34 -4.64 4.68 -6 4 C-4.02 2.68 -2.04 1.36 0 0 Z " fill="#192F48" transform="translate(357,671)"/>
<path d="M0 0 C2.475 0.99 2.475 0.99 5 2 C4.67 3.98 4.34 5.96 4 8 C2.22293791 5.33440687 1.12451727 2.9719385 0 0 Z " fill="#122845" transform="translate(496,637)"/>
<path d="M0 0 C0.99 0.33 1.98 0.66 3 1 C0.03 3.475 0.03 3.475 -3 6 C-3.33 5.01 -3.66 4.02 -4 3 C-2.1875 1.4375 -2.1875 1.4375 0 0 Z " fill="#E6F2F7" transform="translate(904,459)"/>
<path d="M0 0 C0.33 0.99 0.66 1.98 1 3 C-2 5 -2 5 -4.1875 4.625 C-4.785625 4.41875 -5.38375 4.2125 -6 4 C-2.25 0 -2.25 0 0 0 Z " fill="#112A4C" transform="translate(911,457)"/>
</svg>
